<?xml version="1.0" standalone="no"?>
<!DOCTYPE svg PUBLIC "-//W3C//DTD SVG 20010904//EN" "http://www.w3.org/TR/2001/REC-SVG-20010904/DTD/svg10.dtd">
<svg version="1.0" xmlns="http://www.w3.org/2000/svg" width="359.000000pt" height="345.000000pt"
    viewBox="0 0 359.000000 345.000000" preserveAspectRatio="xMidYMid meet">

    <g transform="translate(0.000000,345.000000) scale(0.100000,-0.100000)" fill="#fff" stroke="none">
        <path d="M1808 3323 c12 -2 30 -2 40 0 9 3 -1 5 -23 4 -22 0 -30 -2 -17 -4z" />
        <path d="M1990 3320 c25 -4 65 -10 90 -13 l45 -6 -50 13 c-27 8 -68 14 -90 14
l-40 -1 45 -7z" />
        <path d="M1748 3313 c7 -3 16 -2 19 1 4 3 -2 6 -13 5 -11 0 -14 -3 -6 -6z" />
        <path d="M1630 3280 c-8 -5 -10 -10 -5 -10 6 0 17 5 25 10 8 5 11 10 5 10 -5
0 -17 -5 -25 -10z" />
        <path d="M1567 3253 c-4 -3 -24 -9 -44 -13 -36 -7 -36 -8 -7 -9 16 0 39 6 50
14 10 8 16 15 13 15 -3 0 -9 -3 -12 -7z" />
        <path d="M2380 3217 c113 -55 174 -102 263 -197 52 -56 86 -106 120 -172 26
-52 47 -96 47 -99 0 -3 -52 20 -114 51 -104 51 -124 66 -208 152 -64 65 -118
110 -173 142 -80 46 -188 87 -229 85 -11 0 4 -7 34 -14 126 -31 246 -104 359
-219 l74 -75 -94 24 c-127 33 -272 46 -389 36 l-95 -8 -71 62 c-69 60 -164
131 -164 122 0 -3 26 -24 58 -48 64 -48 152 -128 152 -138 0 -4 -33 -15 -72
-25 -40 -10 -101 -30 -136 -43 l-63 -25 -72 31 c-40 17 -99 40 -131 49 l-59
18 69 58 c85 71 180 128 215 130 15 1 25 6 22 12 -7 18 113 46 232 55 l110 7
-115 -3 c-181 -5 -320 -62 -477 -194 l-72 -61 -85 0 c-48 0 -86 4 -86 10 0 14
86 120 138 169 30 28 36 36 16 23 -38 -26 -100 -93 -141 -153 -31 -44 -33 -45
-109 -57 -42 -7 -124 -28 -182 -47 -307 -103 -485 -275 -547 -530 -20 -81 -23
-282 -6 -358 l11 -49 -48 -56 c-74 -86 -112 -148 -112 -179 0 -28 59 -136 119
-218 l29 -40 -15 -90 c-16 -104 -11 -248 12 -340 39 -153 147 -300 263 -359
29 -14 52 -30 52 -34 0 -4 8 -8 18 -8 9 -1 44 -9 77 -18 73 -20 200 -21 280
-1 33 8 63 14 67 15 4 0 16 -17 27 -37 11 -21 20 -34 21 -30 0 4 -7 22 -16 38
-8 17 -14 32 -12 34 2 2 39 17 83 34 68 26 82 29 90 17 6 -8 35 -54 65 -101
33 -51 91 -121 143 -172 48 -48 84 -89 80 -93 -21 -19 -163 -61 -183 -55 -12
4 -54 37 -93 73 -40 37 -58 51 -42 33 40 -46 93 -93 119 -108 20 -11 20 -12
-9 -20 -17 -4 -82 -8 -145 -7 -97 0 -127 4 -190 26 -87 30 -108 30 -26 -1 163
-61 371 -50 557 30 l47 21 72 -42 c39 -23 73 -40 76 -38 2 2 -26 21 -61 42
-36 21 -65 41 -65 44 0 4 28 23 61 42 33 19 96 64 140 101 l81 66 36 -13 c20
-7 48 -13 62 -12 20 0 21 1 5 5 -11 2 -37 9 -59 15 l-39 10 49 49 c52 53 64
57 108 34 47 -25 203 -48 281 -42 176 13 402 153 517 321 132 192 164 431 83
630 l-24 59 47 53 c86 96 152 226 173 341 25 133 -18 334 -103 477 -45 76
-151 193 -232 255 -37 29 -56 52 -64 78 -33 106 -144 261 -249 348 -59 49
-231 145 -258 145 -6 0 28 -19 75 -43z m-1007 -303 c6 -6 -151 -194 -162 -194
-3 0 -23 5 -43 10 l-37 11 14 40 c18 49 45 110 58 127 10 12 158 18 170 6z
m-221 -85 l-37 -81 -40 7 c-97 15 -183 24 -225 23 -37 0 -33 -2 25 -9 115 -15
212 -31 224 -38 7 -5 3 -37 -13 -107 -14 -54 -33 -135 -43 -179 l-19 -80 -109
-58 c-153 -82 -317 -192 -403 -272 -40 -37 -75 -66 -77 -63 -3 2 -10 50 -16
106 -18 171 13 326 92 458 49 82 164 192 254 243 114 66 303 129 387 130 l36
1 -36 -81z m339 62 c30 -10 81 -31 114 -45 l60 -27 -68 -37 c-37 -20 -97 -59
-133 -85 l-65 -49 -75 28 c-41 15 -77 31 -80 36 -11 17 151 198 176 198 9 0
41 -8 71 -19z m908 -15 c178 -45 182 -48 240 -168 65 -132 91 -241 91 -376 0
-57 -5 -124 -11 -150 -10 -45 -49 -174 -54 -180 -1 -2 -66 40 -143 93 l-141
96 -21 66 c-11 36 -18 68 -16 70 5 5 191 -74 290 -124 37 -19 70 -32 73 -29
19 18 -97 85 -280 160 l-98 41 -33 80 c-18 44 -45 103 -59 132 -15 29 -27 57
-27 63 0 16 207 12 254 -5 35 -12 37 -12 24 1 -20 21 -147 36 -228 28 l-66 -6
-36 54 c-20 30 -61 82 -92 115 -30 33 -52 64 -48 68 4 4 68 5 142 2 99 -4 163
-12 239 -31z m-364 -23 c49 -50 135 -164 135 -179 0 -5 -41 -19 -92 -31 l-91
-22 -36 28 c-20 16 -83 59 -140 96 l-104 67 44 20 c41 18 199 66 226 67 6 1
32 -20 58 -46z m656 -85 c248 -125 442 -349 494 -571 30 -126 13 -294 -39
-396 -31 -59 -143 -195 -225 -274 -71 -68 -249 -197 -271 -197 -4 0 -12 17
-18 38 -5 20 -10 29 -11 20 -1 -9 3 -28 8 -41 9 -24 6 -27 -92 -71 -137 -62
-150 -69 -155 -84 -6 -18 34 -7 143 40 124 55 277 147 368 224 42 35 79 64 82
64 2 0 14 -33 27 -72 18 -59 23 -95 22 -193 0 -104 -4 -130 -28 -200 -74 -216
-225 -372 -441 -457 -71 -28 -91 -31 -180 -31 -82 0 -114 5 -180 27 -44 15
-83 30 -87 34 -3 4 16 40 43 81 69 105 139 254 192 411 44 130 62 197 106 397
17 78 53 161 80 183 3 3 13 19 22 35 9 17 39 67 67 113 28 46 53 88 55 95 3 7
23 -5 50 -31 l45 -44 -71 -146 c-39 -81 -77 -158 -86 -171 -14 -22 -15 -22
-23 -5 -6 14 -7 12 -3 -7 5 -30 -22 -73 -115 -179 -69 -80 -86 -107 -36 -60
29 27 121 135 154 180 2 2 8 -2 13 -10 8 -11 9 -9 5 11 -4 18 4 44 26 85 18
32 56 109 85 169 28 61 56 110 62 110 15 0 106 -118 146 -190 20 -36 41 -62
46 -59 22 13 -43 131 -128 231 l-53 63 19 37 c10 21 24 57 31 81 7 23 17 42
21 42 23 0 142 -155 196 -255 24 -46 33 -56 38 -42 22 55 -195 334 -312 402
l-32 19 6 100 c9 175 -37 360 -123 487 -18 27 -31 49 -29 49 2 0 41 -19 86
-42z m-860 -53 c70 -47 130 -89 134 -94 3 -5 -30 -21 -72 -36 -43 -14 -93 -34
-112 -44 -33 -17 -36 -17 -115 6 -96 27 -236 82 -236 92 0 20 228 161 259 161
8 0 72 -38 142 -85z m-655 -1 c13 -3 24 -10 24 -14 0 -4 -19 -37 -42 -72 -24
-36 -53 -83 -66 -104 -27 -45 -26 -42 9 109 17 75 26 97 37 92 7 -3 25 -8 38
-11z m146 -51 l67 -26 -97 -103 c-92 -98 -101 -105 -169 -128 -51 -17 -73 -21
-73 -12 0 19 65 141 122 227 37 56 57 78 68 74 8 -3 45 -17 82 -32z m908 -93
c47 -94 83 -181 76 -187 -2 -3 -29 3 -59 13 -47 14 -69 31 -152 115 l-96 98
53 15 c136 38 131 40 178 -54z m-616 -22 l101 -33 -100 -7 c-55 -4 -158 -18
-229 -32 -72 -14 -131 -24 -133 -23 -1 2 34 42 78 90 l80 86 51 -24 c28 -13
97 -39 152 -57z m465 -34 c100 -99 112 -95 -124 -38 -77 19 -148 34 -157 34
-39 0 -14 20 60 48 107 41 105 40 121 41 8 1 53 -38 100 -85z m-270 -39 c136
-28 278 -65 392 -102 l117 -37 16 -55 c10 -31 20 -64 23 -74 4 -15 -11 -10
-75 22 -92 46 -252 114 -257 109 -2 -2 46 -25 108 -52 62 -27 140 -65 175 -85
l63 -36 25 -85 c14 -47 28 -92 30 -100 3 -8 9 -58 14 -111 11 -126 -2 -292
-24 -314 -18 -19 -21 -29 -6 -20 12 8 13 11 -36 -190 -20 -82 -42 -156 -49
-163 -7 -8 -43 -24 -79 -37 -81 -28 -73 -11 15 36 32 17 60 37 63 44 6 16 -79
-26 -155 -77 -31 -21 -105 -61 -165 -88 -60 -28 -158 -76 -219 -106 l-110 -55
-92 55 c-160 97 -397 210 -420 202 -14 -6 -49 62 -107 207 -77 191 -88 240
-94 400 -4 135 -3 153 18 210 40 109 97 214 131 238 17 12 101 57 186 101 85
43 152 78 149 78 -19 0 -156 -59 -233 -100 -50 -28 -95 -50 -98 -50 -11 0 48
100 79 135 28 31 42 37 146 59 256 56 358 65 469 41z m-651 -102 c-35 -81
-129 -195 -146 -178 -2 2 3 35 13 74 16 68 18 70 63 89 50 22 76 27 70 15z
m-174 -139 l-17 -79 -85 -55 c-46 -30 -88 -54 -93 -53 -5 2 -9 -3 -9 -10 0 -8
-19 -27 -43 -44 -52 -38 -175 -156 -209 -202 l-26 -34 -22 59 c-46 121 -50
105 53 195 104 90 240 184 372 256 50 27 91 49 92 48 2 -1 -4 -37 -13 -81z
m39 -119 c-40 -81 -52 -83 -33 -7 8 34 19 53 38 65 15 9 28 17 29 17 2 0 -14
-34 -34 -75z m1493 -35 c131 -93 133 -94 134 -106 0 -6 -28 -57 -62 -113 l-61
-103 -29 83 c-24 70 -70 212 -95 293 -9 27 7 20 113 -54z m279 28 c24 -18 44
-38 45 -44 0 -15 -50 -137 -61 -149 -6 -6 -24 5 -49 31 l-40 40 25 62 c14 34
25 68 25 77 0 21 5 19 55 -17z m-1844 -75 c-5 -39 -24 -99 -43 -141 l-34 -73
-38 92 c-31 76 -35 94 -24 105 29 29 143 103 146 94 2 -5 -1 -39 -7 -77z
m-120 -136 c33 -73 37 -91 28 -109 -15 -27 -59 -158 -58 -172 0 -6 12 23 27
64 15 41 33 84 39 94 10 18 12 18 26 -10 33 -63 56 -153 62 -239 8 -119 10
-128 37 -144 l23 -14 -22 25 c-17 18 -23 36 -23 69 l1 44 24 -64 c14 -35 22
-67 19 -73 -3 -5 1 -17 10 -26 17 -20 60 -112 54 -117 -2 -2 -48 18 -103 45
-115 58 -239 145 -229 162 4 6 3 8 -3 5 -24 -15 -187 199 -219 285 -4 13 26
50 120 144 69 69 130 124 136 122 6 -2 29 -43 51 -91z m99 -89 l-1 -93 -24 47
-25 47 22 46 c12 25 23 45 25 45 2 0 3 -42 3 -92z m-483 15 c37 -86 37 -92 5
-163 -17 -36 -35 -85 -42 -110 l-12 -44 -28 34 c-16 19 -43 63 -60 97 -30 61
-30 63 -14 95 22 43 115 160 122 154 3 -3 16 -32 29 -63z m2052 -35 c13 -44
12 -50 -13 -99 l-26 -53 0 130 c1 138 7 141 39 22z m-1941 -178 c51 -78 149
-185 217 -236 22 -17 80 -54 128 -83 49 -29 91 -60 94 -68 4 -10 8 -11 13 -4
9 16 76 -13 89 -37 9 -18 0 -17 -127 9 -239 50 -373 114 -509 247 l-42 41 13
43 c23 73 66 172 72 166 1 -2 25 -37 52 -78z m-82 -233 c142 -120 302 -189
520 -222 61 -9 116 -20 121 -23 6 -4 32 -49 57 -100 37 -74 43 -93 29 -88 -10
3 -36 8 -58 11 -116 19 -266 87 -355 160 -30 25 -60 45 -66 45 -17 0 -23 -56
-27 -255 -2 -99 -3 -135 -1 -80 2 55 8 151 15 212 l11 113 47 -39 c67 -56 143
-100 224 -130 l70 -26 27 -110 c15 -60 35 -131 44 -158 9 -26 14 -51 11 -56
-22 -37 -282 -48 -375 -15 -50 17 -56 22 -61 54 -6 30 -7 31 -8 8 0 -16 -4
-28 -7 -28 -19 0 -99 58 -138 100 -90 96 -156 284 -156 444 0 64 21 216 30
216 3 0 24 -15 46 -33z m1094 -450 c25 -18 22 -18 -121 -14 -114 4 -152 9
-172 22 -21 13 -117 177 -117 199 0 7 378 -184 410 -207z m726 151 c-13 -35
-28 -75 -34 -89 -8 -20 -21 -28 -67 -38 -31 -7 -58 -11 -60 -9 -2 2 19 39 47
82 46 71 78 98 135 115 2 1 -8 -27 -21 -61z m-111 -27 c-35 -64 -83 -121 -101
-121 -8 0 -13 -4 -10 -9 6 -9 -67 -75 -146 -130 l-46 -33 -88 63 -88 64 45 5
c33 5 38 7 19 10 -20 4 -5 14 80 55 127 60 330 144 348 145 9 0 5 -16 -13 -49z
m-919 -226 c65 -143 67 -128 -23 -163 l-78 -30 -23 66 c-12 37 -33 110 -46
163 l-22 96 73 -16 73 -16 46 -100z m974 115 c0 -32 -154 -290 -172 -290 -11
0 -83 37 -131 67 l-38 24 53 41 c29 23 78 63 109 89 38 33 72 52 110 62 68 19
69 19 69 7z m-837 -150 c20 -14 37 -27 37 -31 0 -5 -85 -49 -96 -49 -7 0 -94
184 -94 200 0 7 26 -12 58 -41 32 -30 75 -65 95 -79z m205 104 c29 -4 47 -24
22 -24 -5 0 -41 -20 -80 -45 -39 -25 -75 -45 -82 -45 -13 0 -104 68 -137 104
l-24 25 134 -5 c74 -3 149 -7 167 -10z m162 -90 c44 -32 77 -60 75 -65 -3 -4
-41 -28 -84 -54 l-80 -46 -64 39 c-87 53 -117 75 -114 86 5 14 161 104 175
100 7 -2 49 -29 92 -60z m-213 -111 c48 -31 92 -60 97 -64 9 -8 -29 -27 -147
-75 l-57 -23 -51 75 c-28 42 -48 78 -45 81 9 10 100 62 108 62 4 1 47 -24 95
-56z m403 -15 l91 -51 -52 -53 -52 -53 -41 16 c-23 9 -79 33 -126 55 l-84 39
84 49 c47 27 86 49 87 49 1 1 43 -22 93 -51z m-230 -83 c43 -22 89 -42 179
-76 l24 -10 -34 -29 c-19 -17 -78 -60 -132 -96 -91 -62 -100 -66 -122 -54 -29
15 -185 173 -185 187 0 5 24 17 53 26 42 14 88 35 165 76 1 0 25 -10 52 -24z" />
        <path d="M2503 2560 c0 -30 2 -43 4 -27 2 15 2 39 0 55 -2 15 -4 2 -4 -28z" />
        <path d="M2491 2414 c0 -11 3 -14 6 -6 3 7 2 16 -1 19 -3 4 -6 -2 -5 -13z" />
        <path d="M2612 1430 c0 -14 2 -19 5 -12 2 6 2 18 0 25 -3 6 -5 1 -5 -13z" />
        <path d="M2605 1130 c-45 -47 -146 -101 -230 -125 -33 -10 -64 -21 -70 -26
-14 -13 -4 -11 87 17 103 32 140 51 206 103 28 23 53 41 55 41 9 0 30 -162 37
-280 7 -122 7 -123 8 -35 1 83 -19 281 -33 326 -9 27 -16 24 -60 -21z" />
        <path d="M1527 2033 c-3 -4 -3 -131 0 -281 l6 -272 44 0 43 0 0 90 0 90 38 -1
c34 0 44 -8 116 -90 l80 -89 53 0 c29 0 53 3 53 6 0 3 -38 47 -86 97 -85 92
-85 92 -62 107 119 79 150 191 76 276 -51 58 -78 67 -224 72 -73 2 -134 1
-137 -5z m277 -124 c66 -78 2 -159 -124 -159 l-60 0 0 95 0 95 79 0 c76 0 80
-1 105 -31z" />
        <path d="M1031 1104 c0 -11 3 -14 6 -6 3 7 2 16 -1 19 -3 4 -6 -2 -5 -13z" />
        <path d="M1041 1054 c0 -11 3 -14 6 -6 3 7 2 16 -1 19 -3 4 -6 -2 -5 -13z" />
        <path d="M1978 913 c12 -2 32 -2 45 0 12 2 2 4 -23 4 -25 0 -35 -2 -22 -4z" />
        <path d="M1878 903 c12 -2 30 -2 40 0 9 3 -1 5 -23 4 -22 0 -30 -2 -17 -4z" />
        <path d="M1353 3243 c20 -2 54 -2 75 0 20 2 3 4 -38 4 -41 0 -58 -2 -37 -4z" />
        <path d="M1063 3116 c-92 -23 -181 -74 -257 -149 l-71 -69 72 64 c132 118 258
164 433 156 58 -3 96 -1 85 3 -31 12 -205 9 -262 -5z" />
        <path d="M2676 555 c-9 -26 -7 -32 5 -12 6 10 9 21 6 23 -2 3 -7 -2 -11 -11z" />
        <path d="M2448 513 c7 -3 16 -2 19 1 4 3 -2 6 -13 5 -11 0 -14 -3 -6 -6z" />
        <path d="M2656 503 c-6 -14 -5 -15 5 -6 7 7 10 15 7 18 -3 3 -9 -2 -12 -12z" />
        <path d="M2375 500 c-27 -7 -28 -8 -5 -8 14 0 34 3 45 8 25 11 2 11 -40 0z" />
        <path d="M2303 483 c9 -2 23 -2 30 0 6 3 -1 5 -18 5 -16 0 -22 -2 -12 -5z" />
        <path d="M2148 473 c17 -2 47 -2 65 0 17 2 3 4 -33 4 -36 0 -50 -2 -32 -4z" />
        <path d="M2622 439 c-12 -21 -21 -39 -18 -39 7 0 49 71 44 75 -2 2 -14 -14
-26 -36z" />
        <path d="M850 375 c13 -14 26 -25 28 -25 3 0 -5 11 -18 25 -13 14 -26 25 -28
25 -3 0 5 -11 18 -25z" />
        <path d="M2553 342 c-23 -27 -67 -66 -99 -87 -73 -49 -88 -62 -48 -42 48 24
127 90 163 136 45 57 33 52 -16 -7z" />
        <path d="M900 336 c0 -2 8 -10 18 -17 15 -13 16 -12 3 4 -13 16 -21 21 -21 13z" />
        <path d="M940 306 c0 -3 9 -10 20 -16 11 -6 20 -8 20 -6 0 3 -9 10 -20 16 -11
6 -20 8 -20 6z" />
        <path d="M1850 195 c14 -8 30 -14 35 -14 6 0 -1 6 -15 14 -14 8 -29 14 -35 14
-5 0 1 -6 15 -14z" />
        <path d="M2290 170 c-8 -5 -10 -10 -5 -10 6 0 17 5 25 10 8 5 11 10 5 10 -5 0
-17 -5 -25 -10z" />
        <path d="M2228 153 c6 -2 18 -2 25 0 6 3 1 5 -13 5 -14 0 -19 -2 -12 -5z" />
        <path d="M2153 143 c9 -2 23 -2 30 0 6 3 -1 5 -18 5 -16 0 -22 -2 -12 -5z" />
    </g>
</svg>